<svg width="41" height="41" viewBox="0 0 41 41" fill="none" xmlns="http://www.w3.org/2000/svg">
<g clip-path="url(#clip0_197_834)">
<path fill-rule="evenodd" clip-rule="evenodd" d="M20.5 0C25.9369 0 31.1512 2.15982 34.9957 6.00431C38.8402 9.84881 41 15.0631 41 20.5C41 25.9369 38.8402 31.1512 34.9957 34.9957C31.1512 38.8402 25.9369 41 20.5 41C15.0631 41 9.84881 38.8402 6.00431 34.9957C2.15982 31.1512 0 25.9369 0 20.5C0 15.0631 2.15982 9.84881 6.00431 6.00431C9.84881 2.15982 15.0631 0 20.5 0Z" fill="#D74343"/>
<path fill-rule="evenodd" clip-rule="evenodd" d="M22.8693 7.55529C23.6161 7.37079 24.0378 7.14529 24.1871 7.02815C24.5643 6.74127 25.0381 6.61185 25.5087 6.66712C25.9793 6.7224 26.4102 6.95804 26.7107 7.3245C27.0111 7.69096 27.1577 8.15966 27.1197 8.63201C27.0816 9.10435 26.8618 9.54353 26.5066 9.85715C25.7451 10.4809 24.7143 10.8675 23.7508 11.1076C21.6147 11.6268 19.3854 11.6268 17.2494 11.1076C16.2859 10.8675 15.2579 10.4809 14.4965 9.85715C14.1263 9.5479 13.8931 9.10502 13.8477 8.6248C13.8023 8.14458 13.9483 7.66584 14.2539 7.29266C14.5596 6.91949 15.0002 6.68205 15.4799 6.63197C15.9597 6.58189 16.4398 6.72321 16.8159 7.02522C16.9624 7.14822 17.387 7.37079 18.1338 7.55236C19.69 7.9275 21.3131 7.93043 22.8693 7.55529ZM26.4011 27.1679C26.4011 23.8206 23.8679 20.9008 20.5059 20.9008C17.1381 20.9008 14.6078 23.8206 14.6078 27.1679C14.6078 30.5153 17.141 33.4351 20.5059 33.4351C23.8709 33.4351 26.4011 30.5153 26.4011 27.1679ZM27.5696 12.6422C27.1754 12.6426 26.7852 12.7206 26.4211 12.8718C26.0571 13.023 25.7264 13.2445 25.4479 13.5235C24.8855 14.087 24.57 14.8508 24.5708 15.6469C24.5716 16.4431 24.8886 17.2063 25.4521 17.7687C26.0156 18.3311 26.7794 18.6466 27.5755 18.6458H27.5814C28.3775 18.645 29.1407 18.328 29.7031 17.7645C30.2655 17.201 30.581 16.4372 30.5802 15.6411C30.5794 14.845 30.2624 14.0817 29.6989 13.5194C29.1354 12.957 28.3716 12.6414 27.5755 12.6422H27.5696ZM13.4188 12.6422C13.0246 12.6428 12.6344 12.721 12.2704 12.8724C11.9064 13.0238 11.5758 13.2454 11.2975 13.5245C10.7354 14.0883 10.4202 14.8523 10.4214 15.6484C10.422 16.0426 10.5002 16.4328 10.6516 16.7968C10.803 17.1608 11.0245 17.4914 11.3037 17.7697C11.8675 18.3318 12.6314 18.647 13.4276 18.6458H13.4334C14.2295 18.645 14.9928 18.328 15.5552 17.7645C16.1175 17.201 16.4331 16.4372 16.4323 15.6411C16.4315 14.845 16.1145 14.0817 15.551 13.5194C14.9875 12.957 14.2237 12.6414 13.4276 12.6422H13.4188Z" fill="#422626"/>
</g>
<defs>
<clipPath id="clip0_197_834">
<rect width="41" height="41" fill="white"/>
</clipPath>
</defs>
</svg>
