<svg width="19" height="18" viewBox="0 0 19 18" fill="none" xmlns="http://www.w3.org/2000/svg">
<path d="M10.605 0C12.159 0 13.51 0.294 14.658 0.882C15.806 1.47 16.688 2.296 17.304 3.36C17.92 4.41 18.228 5.628 18.228 7.014C18.228 8.12 18.046 9.184 17.682 10.206C17.318 11.214 16.786 12.033 16.086 12.663C15.4 13.293 14.595 13.608 13.671 13.608C12.971 13.608 12.432 13.433 12.054 13.083C11.676 12.733 11.459 12.257 11.403 11.655C10.969 12.257 10.416 12.733 9.744 13.083C9.086 13.433 8.386 13.608 7.644 13.608C6.58 13.608 5.74 13.286 5.124 12.642C4.522 11.984 4.221 11.102 4.221 9.996C4.221 8.946 4.438 7.966 4.872 7.056C5.32 6.146 5.936 5.418 6.72 4.872C7.504 4.312 8.393 4.032 9.387 4.032C10.717 4.032 11.613 4.536 12.075 5.544L12.306 4.242H13.965L12.915 10.311C12.873 10.577 12.852 10.822 12.852 11.046C12.852 11.886 13.223 12.306 13.965 12.306C14.525 12.306 15.008 12.04 15.414 11.508C15.834 10.976 16.149 10.311 16.359 9.513C16.569 8.701 16.674 7.903 16.674 7.119C16.674 5.285 16.121 3.864 15.015 2.856C13.923 1.848 12.376 1.344 10.374 1.344C8.708 1.344 7.203 1.75 5.859 2.562C4.529 3.36 3.486 4.459 2.73 5.859C1.974 7.259 1.596 8.806 1.596 10.5C1.582 12.348 2.135 13.769 3.255 14.763C4.375 15.771 5.929 16.275 7.917 16.275C9.233 16.275 10.395 16.037 11.403 15.561L11.655 16.863C10.409 17.381 9.037 17.64 7.539 17.64C6.041 17.64 4.718 17.353 3.57 16.779C2.436 16.219 1.554 15.407 0.924 14.343C0.308 13.293 0 12.068 0 10.668C0 8.694 0.455 6.895 1.365 5.271C2.275 3.633 3.535 2.345 5.145 1.407C6.769 0.469 8.589 0 10.605 0ZM8.211 12.117C8.841 12.117 9.422 11.935 9.954 11.571C10.486 11.193 10.906 10.689 11.214 10.059C11.522 9.415 11.676 8.715 11.676 7.959C11.676 7.231 11.473 6.643 11.067 6.195C10.675 5.733 10.115 5.502 9.387 5.502C8.715 5.502 8.12 5.705 7.602 6.111C7.098 6.503 6.706 7.028 6.426 7.686C6.146 8.33 6.006 9.002 6.006 9.702C6.006 10.444 6.195 11.032 6.573 11.466C6.951 11.9 7.497 12.117 8.211 12.117Z" fill="#6043F3"/>
</svg>
