<svg width="28" height="28" viewBox="0 0 28 28" fill="none" xmlns="http://www.w3.org/2000/svg">
<path fill-rule="evenodd" clip-rule="evenodd" d="M17.2165 3.05805C18.2409 2.03356 19.6304 1.45801 21.0793 1.45801C22.5281 1.45801 23.9176 2.03356 24.9421 3.05805C25.9666 4.08253 26.5422 5.47204 26.5422 6.92088C26.5422 8.36972 25.9666 9.75922 24.9421 10.7837L13.8751 21.8507C13.2428 22.483 12.8718 22.854 12.4565 23.1772C11.968 23.5599 11.443 23.8846 10.8815 24.1514C10.4078 24.3765 9.90846 24.5434 9.06146 24.8257L5.17413 26.1207L4.23846 26.4334C3.86632 26.5576 3.46694 26.5757 3.08509 26.4857C2.70325 26.3956 2.35404 26.201 2.07662 25.9235C1.79921 25.6461 1.60456 25.2969 1.51451 24.9151C1.42446 24.5332 1.44256 24.1338 1.56679 23.7617L3.17446 18.9399C3.45679 18.0917 3.62363 17.5924 3.84879 17.1175C4.11635 16.5575 4.44107 16.0325 4.82296 15.5425C5.14496 15.1295 5.51713 14.7574 6.14946 14.125L17.2165 3.05805ZM5.13329 24.2914L8.44779 23.1854C9.37063 22.8774 9.76262 22.7455 10.1278 22.5717C10.5727 22.3586 10.99 22.1008 11.3796 21.7982C11.6981 21.5485 11.9921 21.258 12.6805 20.5697L21.5121 11.738C20.3013 11.309 19.2021 10.6137 18.2956 9.70338C17.3862 8.79668 16.6917 7.69753 16.2633 6.48688L7.43163 15.3185C6.74329 16.0057 6.45163 16.2985 6.20313 16.6182C5.89979 17.0071 5.64196 17.4244 5.42963 17.87C5.25579 18.2352 5.12396 18.6272 4.81596 19.55L3.70996 22.8669L5.13329 24.2914ZM17.6808 5.06705C17.7216 5.27121 17.7881 5.54888 17.9013 5.87205C18.2426 6.8486 18.8011 7.73497 19.5346 8.46438C20.2637 9.19779 21.1497 9.75625 22.1258 10.0977C22.4501 10.2109 22.7278 10.2774 22.932 10.3182L23.7043 9.54588C24.3965 8.84885 24.7842 7.90589 24.7824 6.92357C24.7807 5.94125 24.3897 4.99966 23.6951 4.30505C23.0005 3.61044 22.0589 3.21946 21.0766 3.21774C20.0943 3.21602 19.1513 3.60371 18.4543 4.29588L17.6808 5.06705Z" fill="#836AFF"/>
</svg>
