<svg width="14" height="16" viewBox="0 0 14 16" fill="none" xmlns="http://www.w3.org/2000/svg">
<g clip-path="url(#clip0_342_813)">
<path d="M10.3753 5.76143C11.3968 6.49771 12.6481 6.93092 13.9996 6.93092V4.30858C13.7438 4.30868 13.4887 4.28175 13.2385 4.22824V6.29241C11.8871 6.29241 10.6359 5.85925 9.61421 5.12303V10.4745C9.61421 13.1517 7.46193 15.3217 4.80718 15.3217C3.81663 15.3217 2.89591 15.0197 2.1311 14.5018C3.00403 15.4019 4.22137 15.9602 5.5681 15.9602C8.22307 15.9602 10.3754 13.7901 10.3754 11.1129V5.76143H10.3753ZM11.3143 3.1158C10.7922 2.54074 10.4495 1.79757 10.3753 0.975941V0.638672H9.65403C9.83559 1.68292 10.4549 2.57506 11.3143 3.1158ZM3.81023 12.4476C3.51855 12.062 3.36089 11.5902 3.36163 11.1052C3.36163 9.88082 4.34606 8.88805 5.56061 8.88805C5.78692 8.88793 6.0119 8.92297 6.22763 8.99194V6.31095C5.97553 6.27613 5.72112 6.26129 5.46682 6.26675V8.35349C5.25098 8.2845 5.02589 8.24947 4.79947 8.24965C3.58497 8.24965 2.6006 9.24231 2.6006 10.4669C2.6006 11.3327 3.09262 12.0824 3.81023 12.4476Z" fill="#FF004F"/>
<path d="M9.61425 5.12298C10.636 5.8592 11.8871 6.29235 13.2385 6.29235V4.22819C12.4841 4.06615 11.8164 3.66869 11.3143 3.1158C10.4549 2.575 9.83562 1.68287 9.65406 0.638672H7.75952V11.1128C7.7552 12.3338 6.77247 13.3225 5.56054 13.3225C4.84643 13.3225 4.21194 12.9793 3.81016 12.4475C3.09266 12.0824 2.60058 11.3327 2.60058 10.4669C2.60058 9.24248 3.58495 8.24971 4.79945 8.24971C5.03215 8.24971 5.25642 8.28623 5.4668 8.35354V6.26681C2.85865 6.32115 0.761108 8.47001 0.761108 11.1128C0.761108 12.4321 1.28343 13.6281 2.13119 14.502C2.896 15.0197 3.81666 15.3218 4.80727 15.3218C7.46208 15.3218 9.6143 13.1516 9.6143 10.4745L9.61425 5.12298Z" fill="black"/>
<path d="M13.2385 4.22786V3.66985C12.5582 3.67084 11.8914 3.47875 11.3142 3.11553C11.8251 3.67951 12.4979 4.06843 13.2385 4.22797M9.65398 0.638345C9.63669 0.53857 9.62341 0.438129 9.61417 0.337269V0H6.99825V10.4742C6.99409 11.6952 6.01136 12.6839 4.79938 12.6839C4.45579 12.6844 4.1169 12.6034 3.81008 12.4473C4.21187 12.979 4.84635 13.3222 5.56046 13.3222C6.77234 13.3222 7.75518 12.3336 7.75944 11.1126V0.6384L9.65398 0.638345ZM5.46689 6.26648V5.67233C5.2483 5.64222 5.02793 5.62714 4.8073 5.6272C2.15223 5.6272 0 7.79735 0 10.4742C0 12.1525 0.845852 13.6316 2.13123 14.5016C1.28346 13.6278 0.761141 12.4317 0.761141 11.1125C0.761141 8.46974 2.85863 6.32083 5.46689 6.26648Z" fill="#00F2EA"/>
</g>
<defs>
<clipPath id="clip0_342_813">
<rect width="14" height="16" fill="white"/>
</clipPath>
</defs>
</svg>
